# xmcd
#
# Track frame offsets: 
#        150
#        13135
#        24581
#        35024
#        45710
#        54933
#        66811
#        78466
#        89236
#        98362
#
# Disc length: 1457 seconds
#
# Revision: 0
# Processed by: cddbd v1.5.2PL0 Copyright (c) Steve Scherf et al.
# Submitted via: ExactAudioCopy v1.0b3
#
DISCID=7b05af0a
DTITLE=Staple Singers - Why
DYEAR=1966
DGENRE=Soul
TTITLE0=The Staple Singers - Why (Am I Treated So Bad)
TTITLE1=The Staple Singers - King Of Kings
TTITLE2=The Staple Singers - Step Aside
TTITLE3=The Staple Singers - If I Could Hear My Mother Pray Again
TTITLE4=The Staple Singers - What Are They Doing (In Heaven Today)
TTITLE5=The Staple Singers - Will The Circle Be Unbroken (Album Versio
TTITLE5=n)
TTITLE6=The Staple Singers - I've Been Scorned
TTITLE7=The Staple Singers - I'm Gonna Tell God (About My Troubles)
TTITLE8=The Staple Singers - My Sweet Home
TTITLE9=The Staple Singers - Move Along Train
EXTD=
EXTT0=
EXTT1=
EXTT2=
EXTT3=
EXTT4=
EXTT5=
EXTT6=
EXTT7=
EXTT8=
EXTT9=
PLAYORDER=
